<?xml version="1.0" encoding="UTF-8" standalone="no"?><!DOCTYPE svg PUBLIC "-//W3C//DTD SVG 1.1//EN" "http://www.w3.org/Graphics/SVG/1.1/DTD/svg11.dtd"><svg width="100%" height="100%" viewBox="0 0 480 480" version="1.1" xmlns="http://www.w3.org/2000/svg" xmlns:xlink="http://www.w3.org/1999/xlink" xml:space="preserve" style="fill-rule:evenodd;clip-rule:evenodd;stroke-linecap:round;stroke-linejoin:round;stroke-miterlimit:1.5;"><path d="M240.205,248.12l16.08,-118.08" style="fill:none;stroke:#686868;stroke-width:2px;"/><path d="M324.085,248.12l-166.8,0l11.04,158.64l146.16,0l9.6,-158.64Z" style="fill:#ebebeb;stroke:#404040;stroke-width:4px;"/><path d="M324.085,248.12l-166.8,0l11.04,158.64l146.16,0l9.6,-158.64Z" style="fill:#ebebeb;"/><clipPath id="_clip1"><path d="M324.085,248.12l-166.8,0l11.04,158.64l146.16,0l9.6,-158.64Z"/></clipPath><g clip-path="url(#_clip1)"><path d="M157.285,276.44l166.8,0l-166.8,36l166.8,0l-166.8,34.32l166.8,0l-166.8,30l166.8,0" style="fill:none;stroke:#404040;stroke-width:1px;"/></g><path d="M241.405,236.984l-60.507,-73.254" style="fill:none;stroke:#686868;stroke-width:2px;"/><path d="M245.508,213.311l72.887,-60.948" style="fill:none;stroke:#686868;stroke-width:2px;"/><path d="M243.18,226.864l47.342,4.358" style="fill:none;stroke:#686868;stroke-width:2px;"/><path d="M248.096,190.303l-29.305,-49.651" style="fill:none;stroke:#686868;stroke-width:2px;"/><path d="M174.326,217.644c-20.749,9.57 -69.38,-1.722 -73.894,-11.51c-4.514,-9.787 18.467,-54.108 39.215,-63.678c20.749,-9.569 45.364,-0.493 54.934,20.255c9.569,20.749 0.493,45.364 -20.255,54.933Z" style="fill:#f2f2f2;stroke:#4d4d4d;stroke-width:2px;"/><path d="M194.433,149.749c-15.129,-17.124 -18.287,-66.949 -10.21,-74.085c8.077,-7.136 57.133,2.139 72.261,19.263c15.129,17.124 13.509,43.308 -3.615,58.437c-17.123,15.128 -43.308,13.508 -58.436,-3.615Z" style="fill:#f2f2f2;stroke:#4d4d4d;stroke-width:2px;"/><path d="M346.91,224.726c8.186,21.332 -6.278,69.116 -16.341,72.977c-10.062,3.861 -52.778,-21.982 -60.963,-43.315c-8.186,-21.333 2.488,-45.298 23.821,-53.483c21.333,-8.186 45.298,2.488 53.483,23.821Z" style="fill:#f2f2f2;stroke:#404040;stroke-width:2px;"/><path d="M279.118,118.264c16.24,-16.074 65.806,-22.05 73.388,-14.389c7.582,7.66 1.1,57.162 -15.139,73.236c-16.239,16.074 -42.473,15.94 -58.547,-0.299c-16.075,-16.239 -15.941,-42.473 0.298,-58.548Z" style="fill:#f2f2f2;stroke:#4d4d4d;stroke-width:2px;"/><path d="M230.043,232.612c-6.206,21.99 -46.386,51.622 -56.759,48.695c-10.373,-2.928 -29.134,-49.193 -22.929,-71.183c6.206,-21.991 29.098,-34.806 51.088,-28.6c21.991,6.206 34.806,29.097 28.6,51.088Z" style="fill:#f2f2f2;stroke:#4d4d4d;stroke-width:2px;"/></svg>