<svg viewBox="0 0 480 480" xmlns="http://www.w3.org/2000/svg" fill-rule="evenodd" clip-rule="evenodd" stroke-linecap="round" stroke-linejoin="round" stroke-miterlimit="1.5"><path d="M240.205 248.12l16.08-118.08" fill="none" stroke="#686868" stroke-width="2"/><path d="M324.085 248.12h-166.8l11.04 158.64h146.16l9.6-158.64z" fill="#ebebeb" stroke="#404040" stroke-width="4"/><path d="M324.085 248.12h-166.8l11.04 158.64h146.16l9.6-158.64z" fill="#ebebeb"/><clipPath id="a"><path d="M324.085 248.12h-166.8l11.04 158.64h146.16l9.6-158.64z"/></clipPath><g clip-path="url(#a)"><path d="M157.285 276.44h166.8l-166.8 36h166.8l-166.8 34.32h166.8l-166.8 30h166.8" fill="none" stroke="#404040"/></g><path d="M241.405 236.984l-60.507-73.254m64.61 49.581l72.887-60.948m-75.215 74.501l47.342 4.358m-42.426-40.919l-29.305-49.651" fill="none" stroke="#686868" stroke-width="2"/><path d="M174.326 217.644c-20.749 9.57-69.38-1.722-73.894-11.51-4.514-9.787 18.467-54.108 39.215-63.678 20.749-9.569 45.364-.493 54.934 20.255 9.569 20.749.493 45.364-20.255 54.933zm20.107-67.895c-15.129-17.124-18.287-66.949-10.21-74.085 8.077-7.136 57.133 2.139 72.261 19.263 15.129 17.124 13.509 43.308-3.615 58.437-17.123 15.128-43.308 13.508-58.436-3.615z" fill="#f2f2f2" stroke="#4d4d4d" stroke-width="2"/><path d="M346.91 224.726c8.186 21.332-6.278 69.116-16.341 72.977-10.062 3.861-52.778-21.982-60.963-43.315-8.186-21.333 2.488-45.298 23.821-53.483 21.333-8.186 45.298 2.488 53.483 23.821z" fill="#f2f2f2" stroke="#404040" stroke-width="2"/><path d="M279.118 118.264c16.24-16.074 65.806-22.05 73.388-14.389 7.582 7.66 1.1 57.162-15.139 73.236-16.239 16.074-42.473 15.94-58.547-.299-16.075-16.239-15.941-42.473.298-58.548zm-49.075 114.348c-6.206 21.99-46.386 51.622-56.759 48.695-10.373-2.928-29.134-49.193-22.929-71.183 6.206-21.991 29.098-34.806 51.088-28.6 21.991 6.206 34.806 29.097 28.6 51.088z" fill="#f2f2f2" stroke="#4d4d4d" stroke-width="2"/></svg>